inDegrees=yes
name=ik_S49_A05_T01
DataType=double
version=3
OpenSimVersion=4.3-2021-08-27-4bc7ad9
endheader
time	pelvis_tilt	pelvis_list	pelvis_rotation	pelvis_tx	pelvis_ty	pelvis_tz	hip_flexion_r	hip_adduction_r	hip_rotation_r	knee_angle_r	knee_angle_r_beta	ankle_angle_r	subtalar_angle_r	mtp_angle_r	hip_flexion_l	hip_adduction_l	hip_rotation_l	knee_angle_l	knee_angle_l_beta	ankle_angle_l	subtalar_angle_l	mtp_angle_l	lumbar_extension	lumbar_bending	lumbar_rotation	arm_flex_r	arm_add_r	arm_rot_r	elbow_flex_r	pro_sup_r	wrist_flex_r	wrist_dev_r	arm_flex_l	arm_add_l	arm_rot_l	elbow_flex_l	pro_sup_l	wrist_flex_l	wrist_dev_l
25.23999999999955	-4.868919099067265	-4.366030566001399	29.58741406485199	0	0.9399999999999999	0	44.02991545341854	-10.28039476204106	-10.35854254225909	53.33206408621755	0.9308201151891172	0	0	0	44.02991545341854	-10.28039476204106	-10.35854254225909	53.33206408621755	0.9308201151891172	0	0	0	-4.758904931124844	-0.7957665186018639	4.76371196302724	74.16736818179946	-11.85153732126187	-0.3497207402240349	21.30340461011314	105.6453573610239	0	0	49.75683141612981	-0.2104490504759755	23.75855279310884	11.47535340579453	121.2618039191677	0	0
25.25999999999955	-4.848270054163843	-4.372994962842904	29.59534972733338	0	0.9399999999999999	0	44.03003825176927	-10.28027247914237	-10.35844177606784	53.33220732926485	0.9308226152519232	0	0	0	44.03003825176927	-10.28027247914237	-10.35844177606784	53.33220732926485	0.9308226152519232	0	0	0	-4.743748749166785	-0.8134106621721576	4.772570430547294	74.13262643816128	-11.90800323487301	-0.3535100932929118	21.24234448398435	105.6111869855072	0	0	49.76740467522519	-0.1777385143611865	23.71837941526412	11.44460410385364	121.2669230509017	0	0
25.27999999999955	-4.836629002360279	-4.375677540093369	29.59186513411196	0	0.9399999999999999	0	44.03096278909251	-10.27964884951602	-10.35782608087835	53.33334102559056	0.9308424019855247	-7.292365710055884e-36	0	0	44.03096278909251	-10.27964884951602	-10.35782608087835	53.33334102559056	0.9308424019855247	-7.292365710055884e-36	0	0	-4.735495485600946	-0.8229855577191713	4.777192546467711	74.10544265863885	-11.96938106913925	-0.3218512467587956	21.25700331544029	105.5897831539221	0	0	49.74871167972099	-0.1932850114533912	23.73527977595252	11.43751950571497	121.2500829444428	0	0
25.29999999999955	-4.826113163469238	-4.376270613314708	29.58412149996612	0	0.9399999999999999	0	44.03172423911524	-10.27908277459633	-10.35729419893564	53.33426360996568	0.930858504120498	-9.844987208978757e-54	0	0	44.03172423911524	-10.27908277459633	-10.35729419893564	53.33426360996568	0.930858504120498	-9.844987208978757e-54	0	0	-4.726821506309975	-0.8304232906981801	4.785011812633308	74.07558465520518	-12.05727841072529	-0.3218378463124573	21.27582856450088	105.5939564868491	0	0	49.7466069142509	-0.1927363250359428	23.71346592458054	11.43485416747561	121.2369781006388	0	0
25.31999999999955	-4.815255429555638	-4.374663381958764	29.58890644303504	0	0.9399999999999999	0	44.03184285299746	-10.27896606082822	-10.35719761171239	53.33440324662322	0.9308609412399286	-1.930696131555549e-71	0	0	44.03184285299746	-10.27896606082822	-10.35719761171239	53.33440324662322	0.9308609412399286	-1.930696131555549e-71	0	0	-4.714450067791873	-0.8385781004193953	4.817962580766913	73.99030619948725	-12.21970316582004	-0.2639334091853487	21.37593112053874	105.6917843736377	0	0	49.74214027554611	-0.1613469947144021	23.73867612151198	11.42069238984826	121.2205513616319	0	0
25.33999999999955	-4.789179620055749	-4.364860722579123	29.62364012306692	0	0.9399999999999999	0	44.03222262756766	-10.27858560521916	-10.35688465278221	53.33484281239642	0.9308686131099498	0	0	0	44.03222262756766	-10.27858560521916	-10.35688465278221	53.33484281239642	0.9308686131099498	0	0	0	-4.685672908710917	-0.8462647854922314	4.839553552320456	73.50584035612766	-12.45888458650129	0.1405186292000457	21.99537108543731	105.2067652476775	0	0	49.68194818222378	-0.0904965316628293	23.78387157019016	11.39380419744638	121.1793110832078	0	0
25.35999999999955	-4.792312623488778	-4.379846878247683	29.6214271429216	0	0.9399999999999999	0	44.0326059969336	-10.27820589980265	-10.35657105554889	53.33529094609626	0.9308764345185012	0	0	0	44.0326059969336	-10.27820589980265	-10.35657105554889	53.33529094609626	0.9308764345185012	0	0	0	-4.695045536540171	-0.8600387367817443	4.855312998785213	73.17458568022695	-12.56293116392447	0.1594369193728223	22.66575925657284	104.7701662550855	0	0	49.71265053162351	-0.08943008878324732	23.79147761181206	11.38667737656711	121.1761348308835	0	0
25.37999999999955	-4.789886807746424	-4.385923346309037	29.67508192864712	0	0.9399999999999999	0	44.03291213582081	-10.2779047366811	-10.35632171658468	53.33565079411147	0.9308827150511733	0	0	0	44.03291213582081	-10.2779047366811	-10.35632171658468	53.33565079411147	0.9308827150511733	0	0	0	-4.697728245364028	-0.8640480979391792	4.834104485968449	73.18312294517175	-12.59716676508418	0.1405807890809636	23.1149013316819	104.1934674710235	0	0	49.7284189597618	-0.07546449859216663	23.79011127838062	11.39378594989791	121.160736345524	0	0
25.39999999999955	-4.792886286617938	-4.391677665219818	29.60806203353349	0	0.9399999999999999	0	44.03322363900804	-10.27761241391318	-10.3560757407255	53.33603256415906	0.9308893781954893	0	0	0	44.03322363900804	-10.27761241391318	-10.3560757407255	53.33603256415906	0.9308893781954893	0	0	0	-4.697415446207224	-0.8763290459980551	4.913679216617096	72.71414010855547	-12.76524269574132	0.004145546778188821	24.75006990663499	103.14584297496	0	0	49.7347648375677	-0.0700254334348553	23.74123965569271	11.40120037296388	121.1729161144852	0	0
25.41999999999955	-4.79876475773654	-4.394977671011831	29.68402399110493	0	0.9399999999999999	0	44.03357149191913	-10.27726910090388	-10.35579173457788	53.33643961919851	0.9308964826461645	0	0	0	44.03357149191913	-10.27726910090388	-10.35579173457788	53.33643961919851	0.9308964826461645	0	0	0	-4.708694716392823	-0.8690101892636517	4.853906859571994	72.73138213521136	-12.79030745732513	0.01852961420113513	25.68379329041809	102.3918248304288	0	0	49.76383833575375	-0.07734975567851787	23.67092633396244	11.47887830086637	121.1117096374861	0	0
25.43999999999955	-4.793623134508785	-4.390733260842261	29.51543845146391	0	0.9399999999999999	0	44.03394724946117	-10.27689511816577	-10.35548319112515	53.33687558528889	0.9309040916898688	0	0	0	44.03394724946117	-10.27689511816577	-10.35548319112515	53.33687558528889	0.9309040916898688	0	0	0	-4.689520848985	-0.8906973639383973	5.043299563008184	71.19792715871009	-13.20175883148621	-1.108236667327761	28.14106293822356	102.409641626266	0	0	49.73247193211613	-0.07331053654567891	23.65732106777331	11.47535086050564	121.1720040452895	0	0
25.45999999999955	-4.804070644363469	-4.395546253857787	29.36937816452831	0	0.9399999999999999	0	44.03431079013045	-10.27653529735645	-10.35518572151565	53.33729920726194	0.9309114852880823	0	0	0	44.03431079013045	-10.27653529735645	-10.35518572151565	53.33729920726194	0.9309114852880823	0	0	0	-4.690970607336389	-0.9070441832269328	5.190137498258717	70.15548167622407	-13.49752761586542	-1.728509085261553	30.32174618103989	102.1354756329373	0	0	49.73917317869884	-0.07188061517168307	23.6597453319002	11.49920042300388	121.100088329579	0	0
25.47999999999955	-4.807053488157096	-4.40714982216993	29.23129763019967	0	0.9399999999999999	0	44.03466287555467	-10.27618770203919	-10.35489807599314	53.33771021341326	0.9309186586986687	0	0	0	44.03466287555467	-10.27618770203919	-10.35489807599314	53.33771021341326	0.9309186586986687	0	0	0	-4.689516186478905	-0.9308406940691427	5.327438241151896	68.89419701403916	-13.77648924673505	-2.307550781346199	32.68800056755227	101.9018542301031	0	0	49.74219561047035	-0.09949011060092276	23.63254512540143	11.5510415038431	121.0968846092795	0	0
25.49999999999955	-4.813994394930155	-4.415044479292407	29.26721665769301	0	0.9399999999999999	0	44.03504767279305	-10.27581051557271	-10.35458515579491	53.33816217444685	0.9309265469067957	0	0	0	44.03504767279305	-10.27581051557271	-10.35458515579491	53.33816217444685	0.9309265469067957	0	0	0	-4.704148613823787	-0.9270891480424949	5.263087802330377	68.91590826017486	-13.74510659317218	-2.261199039227074	33.84825763877213	101.5998438872406	0	0	49.76151460868538	-0.1238266901764487	23.61774836802283	11.58106772421786	121.0430150625429	0	0
25.51999999999954	-4.811479304786029	-4.423651004465026	29.2765391365663	0	0.9399999999999999	0	44.03534516982944	-10.27551821739146	-10.35434280350967	53.33851048629076	0.9309326260952955	0	0	0	44.03534516982944	-10.27551821739146	-10.35434280350967	53.33851048629076	0.9309326260952955	0	0	0	-4.71044387783959	-0.9290350628287755	5.203673183442707	68.93893634277485	-13.68204355276887	-2.234346457747732	34.3859468654799	101.5010185655148	0	0	49.74211657621716	-0.1864536084473141	23.49711018462266	11.63803275534356	121.1033468584629	0	0
25.53999999999954	-4.843766432158264	-4.428261354771267	29.13817218948698	0	0.9399999999999999	0	44.03566803963546	-10.27520860983355	-10.35408396785868	53.33889699417904	0.9309393719305309	0	0	0	44.03566803963546	-10.27520860983355	-10.35408396785868	53.33889699417904	0.9309393719305309	0	0	0	-4.744098813160111	-0.9126686523697682	5.161531438325298	69.04101561781606	-13.51702264405241	-2.089243722810652	35.44179930881813	101.3856526190355	0	0	49.79368244678385	-0.3110326801299687	23.37046842006846	11.69878771834349	121.047973089139	0	0
